HIERARCHY
ROOT joint_Root
{
	OFFSET 0.0 0.0 0.0
	CHANNELS 6 Xposition Yposition Zposition Zrotation Xrotation Yrotation 
	JOINT Hips
	{
		OFFSET 4.5925 91.4895 -427.239
		CHANNELS 6 Xposition Yposition Zposition Zrotation Xrotation Yrotation 
		JOINT Spine
		{
			OFFSET 15.7357 0.0 0.0
			CHANNELS 6 Xposition Yposition Zposition Zrotation Xrotation Yrotation 
			JOINT Chest
			{
				OFFSET 8.98455 -0.406207 0.0
				CHANNELS 6 Xposition Yposition Zposition Zrotation Xrotation Yrotation 
				JOINT Neck
				{
					OFFSET 16.3773 0.0 0.0
					CHANNELS 6 Xposition Yposition Zposition Zrotation Xrotation Yrotation 
					JOINT Head
					{
						OFFSET 6.45672 0.0 0.0
						CHANNELS 6 Xposition Yposition Zposition Zrotation Xrotation Yrotation 
						End Site
						{
							OFFSET 0.0 0.0 0.0
						}
					}
				}
				JOINT Shoulder_L
				{
					OFFSET 12.9942 -0.242716 4.98039
					CHANNELS 6 Xposition Yposition Zposition Zrotation Xrotation Yrotation 
					JOINT UpperArm_L
					{
						OFFSET 5.34809 0.0 0.0
						CHANNELS 6 Xposition Yposition Zposition Zrotation Xrotation Yrotation 
						JOINT LowerArm_L
						{
							OFFSET 24.3286 1.87007e-05 0.0
							CHANNELS 6 Xposition Yposition Zposition Zrotation Xrotation Yrotation 
							JOINT Hand_L
							{
								OFFSET 22.2916 0.0 0.0
								CHANNELS 6 Xposition Yposition Zposition Zrotation Xrotation Yrotation 
								End Site
								{
									OFFSET 0.0 0.0 0.0
								}
							}
						}
					}
				}
				JOINT Shoulder_R
				{
					OFFSET 12.9945 -0.242716 -4.98039
					CHANNELS 6 Xposition Yposition Zposition Zrotation Xrotation Yrotation 
					JOINT UpperArm_R
					{
						OFFSET -5.34813 0.0 0.0
						CHANNELS 6 Xposition Yposition Zposition Zrotation Xrotation Yrotation 
						JOINT LowerArm_R
						{
							OFFSET -24.3289 0.000322201 0.0
							CHANNELS 6 Xposition Yposition Zposition Zrotation Xrotation Yrotation 
							JOINT Hand_R
							{
								OFFSET -22.2915 -0.000108084 0.0
								CHANNELS 6 Xposition Yposition Zposition Zrotation Xrotation Yrotation 
								End Site
								{
									OFFSET 0.0 0.0 0.0
								}
							}
						}
					}
				}
			}
		}
		JOINT UpperLeg_L
		{
			OFFSET -2.19248 -6.46944 0.0
			CHANNELS 6 Xposition Yposition Zposition Zrotation Xrotation Yrotation 
			JOINT LowerLeg_L
			{
				OFFSET 39.0811 0.0 -1.23785e-05
				CHANNELS 6 Xposition Yposition Zposition Zrotation Xrotation Yrotation 
				JOINT Foot_L
				{
					OFFSET 40.9854 0.0 -1.26872e-05
					CHANNELS 6 Xposition Yposition Zposition Zrotation Xrotation Yrotation 
					JOINT Toes_L
					{
						OFFSET 11.7543 0.0 0.0
						CHANNELS 6 Xposition Yposition Zposition Zrotation Xrotation Yrotation 
						End Site
						{
							OFFSET 0.0 0.0 0.0
						}
					}
				}
			}
		}
		JOINT UpperLeg_R
		{
			OFFSET -2.19251 6.46944 0.0
			CHANNELS 6 Xposition Yposition Zposition Zrotation Xrotation Yrotation 
			JOINT LowerLeg_R
			{
				OFFSET -39.0811 -0.00228153 -0.0401928
				CHANNELS 6 Xposition Yposition Zposition Zrotation Xrotation Yrotation 
				JOINT Foot_R
				{
					OFFSET -40.9854 0.0 0.0
					CHANNELS 6 Xposition Yposition Zposition Zrotation Xrotation Yrotation 
					JOINT Toes_R
					{
						OFFSET -11.7543 0.0 0.0
						CHANNELS 6 Xposition Yposition Zposition Zrotation Xrotation Yrotation 
						End Site
						{
							OFFSET 0.0 0.0 0.0
						}
					}
				}
			}
		}
	}
}
MOTION
Frames:	8
Frame Time:	0.0333333
0.000000 0.000000 0.000000 0.000000 0.000000 -0.000000 1.461860 87.401400 0.641609 89.116400 -10.134900 12.851900 15.735700 0.000005 -0.000001 83.855500 79.974400 -82.585700 8.984550 -0.406207 -0.000000 12.200400 -2.077930 2.761310 16.377300 -0.000001 -0.000001 -0.275462 2.285400 0.064021 6.456720 -0.000001 -0.000000 -6.837630 8.285770 -8.780110 12.994200 -0.242716 4.980390 -91.292400 4.534020 -74.071900 5.348090 -0.000007 -0.000001 -60.904200 42.570600 -13.211800 24.328600 0.000019 0.000005 8.576350 16.262800 -28.309700 22.291600 -0.000001 0.000005 11.959700 5.273210 0.811474 12.994500 -0.242716 -4.980390 88.349600 11.050300 -81.450500 -5.348130 -0.000001 -0.000004 -61.605500 9.384550 -19.580100 -24.328900 0.000322 -0.000009 -2.658010 -9.787950 -15.263000 -22.291500 -0.000108 -0.000004 6.265510 5.222250 2.188290 -2.192480 -6.469440 -0.000000 -174.220000 -16.201400 -3.369380 39.081100 -0.000007 -0.000012 -0.370898 0.365090 45.453000 40.985400 -0.000006 -0.000013 1.078340 1.770150 -78.693500 11.754300 -0.000000 0.000003 -0.000340 -0.002887 -16.684700 -2.192510 6.469440 -0.000001 175.412000 9.996320 174.508000 -39.081100 -0.002282 -0.040193 0.031839 -0.027870 45.717900 -40.985400 0.000008 0.000006 6.625450 9.496790 -78.003700 -11.754300 -0.000006 -0.000006 -0.002194 -0.031120 -17.838600
0.000000 0.000000 0.000000 0.000000 0.000000 -0.000000 1.054150 88.301600 1.391230 89.015600 -9.592820 12.080600 15.735700 0.000005 -0.000001 83.002200 81.341600 -82.631200 8.984550 -0.406207 -0.000000 9.433390 -2.092350 0.913979 16.377300 -0.000001 -0.000001 1.366270 1.938490 -0.685612 6.456720 -0.000001 -0.000000 -4.854980 6.657740 -7.671340 12.994200 -0.242716 4.980390 -91.335500 4.365610 -72.971600 5.348090 -0.000007 -0.000001 -62.570700 39.218200 -10.679800 24.328600 0.000019 0.000005 10.390200 21.264300 -26.820800 22.291600 -0.000001 0.000005 11.464300 5.245290 1.555860 12.994500 -0.242716 -4.980390 88.262800 10.132600 -80.217600 -5.348130 -0.000001 -0.000004 -59.979800 1.091520 -20.755900 -24.328900 0.000322 -0.000009 -1.464770 -7.301570 -11.357400 -22.291500 -0.000108 -0.000004 1.407550 5.115890 4.772110 -2.192480 -6.469440 -0.000000 -174.460000 -14.735900 -1.908040 39.081100 -0.000007 -0.000012 -0.335807 0.375937 41.773600 40.985400 -0.000006 -0.000013 0.373344 1.044720 -77.305900 11.754300 -0.000000 0.000003 -0.000297 -0.002577 -16.673600 -2.192510 6.469440 -0.000001 175.652000 10.551300 176.151000 -39.081100 -0.002282 -0.040193 0.029117 -0.028483 42.218600 -40.985400 0.000008 0.000006 6.460450 9.600710 -76.562400 -11.754300 -0.000006 -0.000006 -0.002459 -0.034321 -17.968800
0.000000 0.000000 0.000000 0.000000 0.000000 -0.000000 0.745742 89.379600 1.968390 89.181200 -8.497030 10.007700 15.735700 0.000005 -0.000001 80.034800 83.260300 -80.802800 8.984550 -0.406207 -0.000000 5.498540 -2.312000 -1.423340 16.377300 -0.000001 -0.000001 3.909760 1.523590 -2.001560 6.456720 -0.000001 -0.000000 -3.626000 4.979560 -5.386500 12.994200 -0.242716 4.980390 -91.236600 3.705640 -71.528300 5.348090 -0.000007 -0.000001 -64.029300 35.670900 -7.988700 24.328600 0.000019 0.000005 9.050030 20.097300 -24.868400 22.291600 -0.000001 0.000005 11.972900 5.201280 2.686260 12.994500 -0.242716 -4.980390 88.259200 8.976040 -78.976600 -5.348130 -0.000001 -0.000004 -55.427200 -8.652580 -24.063100 -24.328900 0.000322 -0.000009 -0.901723 -6.262470 -8.201650 -22.291500 -0.000108 -0.000004 -0.233753 4.995390 7.408200 -2.192480 -6.469440 -0.000000 -175.392000 -13.175900 -1.536900 39.081100 -0.000007 -0.000012 -0.285492 0.378741 37.009300 40.985400 -0.000006 -0.000013 -0.092011 0.506307 -75.168800 11.754300 -0.000000 0.000003 -0.000274 -0.002412 -16.667700 -2.192510 6.469440 -0.000001 175.672000 12.010300 176.763000 -39.081100 -0.002282 -0.040193 0.025324 -0.028369 37.844000 -40.985400 0.000008 0.000006 6.259300 10.128300 -74.548200 -11.754300 -0.000006 -0.000006 -0.003025 -0.040883 -18.235700
0.000000 0.000000 0.000000 0.000000 0.000000 -0.000000 0.602104 90.157300 2.354760 89.120000 -7.365440 7.906680 15.735700 0.000005 -0.000001 75.435200 84.864500 -77.230800 8.984550 -0.406207 -0.000000 2.140340 -2.492970 -3.541310 16.377300 -0.000001 -0.000001 6.120130 1.318490 -2.838330 6.456720 -0.000001 -0.000000 -3.364980 4.112860 -3.369340 12.994200 -0.242716 4.980390 -91.172100 3.242180 -70.112600 5.348090 -0.000007 -0.000001 -63.902700 32.425100 -6.394850 24.328600 0.000019 0.000005 6.874840 16.082500 -23.519300 22.291600 -0.000001 0.000005 11.562600 5.205360 2.583360 12.994500 -0.242716 -4.980390 88.520200 7.276000 -78.469900 -5.348130 -0.000001 -0.000004 -49.232500 -19.508300 -29.419500 -24.328900 0.000322 -0.000009 -1.087440 -8.792740 -7.072740 -22.291500 -0.000108 -0.000004 3.172100 4.954260 8.284780 -2.192480 -6.469440 -0.000000 -175.808000 -12.551200 -1.758430 39.081100 -0.000007 -0.000012 -0.242664 0.369109 33.322600 40.985400 -0.000006 -0.000013 -0.091144 0.945928 -73.445200 11.754300 -0.000000 0.000003 -0.000253 -0.002254 -16.662000 -2.192510 6.469440 -0.000001 175.665000 14.477700 176.864000 -39.081100 -0.002282 -0.040193 0.019471 -0.023721 34.294300 -40.985400 0.000008 0.000006 6.199480 11.604800 -72.865200 -11.754300 -0.000006 -0.000006 -0.003495 -0.046082 -18.447400
0.000000 0.000000 0.000000 0.000000 0.000000 -0.000000 0.631584 90.487000 2.534210 89.014100 -6.535020 6.893490 15.735700 0.000005 -0.000001 74.464700 85.607000 -76.882500 8.984550 -0.406207 -0.000000 0.657951 -2.202490 -4.819620 16.377300 -0.000001 -0.000001 6.766160 1.021130 -3.508230 6.456720 -0.000001 -0.000000 -3.981230 3.772520 -2.052290 12.994200 -0.242716 4.980390 -91.411300 3.735680 -69.288700 5.348090 -0.000007 -0.000001 -62.478100 30.028500 -6.159280 24.328600 0.000019 0.000005 6.127160 14.511400 -23.190900 22.291600 -0.000001 0.000005 11.069400 5.227030 2.032270 12.994500 -0.242716 -4.980390 89.016400 4.866470 -78.563600 -5.348130 -0.000001 -0.000004 -40.932800 -30.853500 -35.649300 -24.328900 0.000322 -0.000009 -1.962930 -13.855400 -8.133180 -22.291500 -0.000108 -0.000004 8.356230 5.038400 6.527710 -2.192480 -6.469440 -0.000000 -175.797000 -12.904200 -1.925500 39.081100 -0.000007 -0.000012 -0.221517 0.358722 31.696400 40.985400 -0.000006 -0.000013 0.221646 2.007770 -72.679200 11.754300 -0.000000 0.000003 -0.000247 -0.002210 -16.660400 -2.192510 6.469440 -0.000001 175.457000 16.604100 177.049000 -39.081100 -0.002282 -0.040193 0.012700 -0.014756 32.509500 -40.985400 0.000008 0.000006 6.008290 13.130700 -72.087500 -11.754300 -0.000006 -0.000006 -0.003757 -0.048884 -18.561500
0.000000 0.000000 0.000000 0.000000 0.000000 -0.000000 0.833257 90.516800 2.496970 89.236300 -6.013310 6.706080 15.735700 0.000005 -0.000001 77.201500 85.741700 -80.001300 8.984550 -0.406207 -0.000000 0.503907 -1.708740 -5.588150 16.377300 -0.000001 -0.000001 6.399880 0.930748 -3.585750 6.456720 -0.000001 -0.000000 -4.874720 3.464790 -1.580810 12.994200 -0.242716 4.980390 -91.808800 4.603760 -68.523300 5.348090 -0.000007 -0.000001 -60.450900 28.674000 -7.353230 24.328600 0.000019 0.000005 6.447560 15.798900 -22.542800 22.291600 -0.000001 0.000005 11.695700 5.224960 2.084170 12.994500 -0.242716 -4.980390 89.898000 0.547168 -79.427400 -5.348130 -0.000001 -0.000004 -33.554400 -43.545300 -39.853200 -24.328900 0.000322 -0.000009 -4.583930 -19.890600 -13.239800 -22.291500 -0.000108 -0.000004 12.898200 5.197080 2.833310 -2.192480 -6.469440 -0.000000 -176.311000 -12.459600 -2.191990 39.081100 -0.000007 -0.000012 -0.218175 0.355947 31.506300 40.985400 -0.000006 -0.000013 0.384028 1.961870 -72.511400 11.754300 -0.000000 0.000003 -0.000272 -0.002395 -16.667100 -2.192510 6.469440 -0.000001 175.032000 17.100700 176.913000 -39.081100 -0.002282 -0.040193 0.010082 -0.010684 32.420700 -40.985400 0.000008 0.000006 5.653250 13.327000 -71.960200 -11.754300 -0.000006 -0.000006 -0.003980 -0.051233 -18.657100
0.000000 0.000000 0.000000 0.000000 0.000000 -0.000000 1.089670 90.507700 2.279400 89.718800 -5.432340 6.340980 15.735700 0.000005 -0.000001 80.967700 85.793400 -84.069100 8.984550 -0.406207 -0.000000 0.520236 -1.124490 -6.193280 16.377300 -0.000001 -0.000001 6.198190 0.376836 -2.485950 6.456720 -0.000001 -0.000000 -5.566940 3.172920 -1.950950 12.994200 -0.242716 4.980390 -91.996600 5.047810 -68.386000 5.348090 -0.000007 -0.000001 -58.925400 27.435800 -8.831230 24.328600 0.000019 0.000005 6.646660 17.503400 -21.179500 22.291600 -0.000001 0.000005 12.869000 5.199940 2.717670 12.994500 -0.242716 -4.980390 90.900700 -4.539370 -78.772500 -5.348130 -0.000001 -0.000004 -27.881100 -54.983500 -43.254400 -24.328900 0.000322 -0.000009 -9.456370 -22.830100 -23.233400 -22.291500 -0.000108 -0.000004 16.066200 5.326480 -0.665220 -2.192480 -6.469440 -0.000000 -177.286000 -11.548300 -2.884350 39.081100 -0.000007 -0.000012 -0.217194 0.354877 31.468100 40.985400 -0.000006 -0.000013 0.489767 1.505520 -72.299700 11.754300 -0.000000 0.000003 -0.000291 -0.002533 -16.672000 -2.192510 6.469440 -0.000001 174.817000 16.213300 175.830000 -39.081100 -0.002282 -0.040193 0.014496 -0.017122 33.192200 -40.985400 0.000008 0.000006 5.240080 12.021100 -71.569300 -11.754300 -0.000006 -0.000006 -0.004077 -0.052239 -18.698100
0.000000 0.000000 0.000000 0.000000 0.000000 -0.000000 1.302490 90.527500 2.051200 90.208500 -4.621570 5.812100 15.735700 0.000005 -0.000001 82.213500 85.817800 -85.375200 8.984550 -0.406207 -0.000000 0.503482 -0.932687 -6.314650 16.377300 -0.000001 -0.000001 6.337390 -0.422375 -0.754490 6.456720 -0.000001 -0.000000 -5.978360 3.057270 -3.005260 12.994200 -0.242716 4.980390 -91.991400 5.052880 -68.457000 5.348090 -0.000007 -0.000001 -58.756900 25.829400 -9.773960 24.328600 0.000019 0.000005 6.387150 18.649500 -19.293400 22.291600 -0.000001 0.000005 14.037800 5.171190 3.430640 12.994500 -0.242716 -4.980390 92.186600 -9.133390 -76.483100 -5.348130 -0.000001 -0.000004 -29.397200 -66.191200 -53.209300 -24.328900 0.000322 -0.000009 -10.667600 -15.514300 -35.198300 -22.291500 -0.000108 -0.000004 18.963000 5.421310 -3.588040 -2.192480 -6.469440 -0.000000 -178.108000 -11.187500 -3.674770 39.081100 -0.000007 -0.000012 -0.212279 0.349174 31.297700 40.985400 -0.000006 -0.000013 0.768015 1.790340 -71.979200 11.754300 -0.000000 0.000003 -0.000295 -0.002562 -16.673100 -2.192510 6.469440 -0.000001 174.739000 14.998400 174.744000 -39.081100 -0.002282 -0.040193 0.018218 -0.022379 33.698300 -40.985400 0.000008 0.000006 4.687680 10.167800 -71.182200 -11.754300 -0.000006 -0.000006 -0.003855 -0.049924 -18.603800
